<svg width="19" height="19" viewBox="0 0 19 19" fill="none" xmlns="http://www.w3.org/2000/svg">
<path d="M9.13498 2.01171C11.5757 2.01171 11.8648 2.02241 12.8247 2.06523C13.7167 2.10449 14.1985 2.25436 14.5196 2.37925C14.9443 2.54339 15.2511 2.74322 15.5687 3.0608C15.8899 3.38196 16.0861 3.68527 16.2503 4.1099C16.3752 4.43105 16.525 4.91635 16.5643 5.80487C16.6071 6.76832 16.6178 7.05736 16.6178 9.49454C16.6178 11.9353 16.6071 12.2243 16.5643 13.1842C16.525 14.0763 16.3752 14.558 16.2503 14.8792C16.0861 15.3038 15.8863 15.6107 15.5687 15.9283C15.2476 16.2494 14.9443 16.4457 14.5196 16.6098C14.1985 16.7347 13.7132 16.8846 12.8247 16.9239C11.8612 16.9667 11.5722 16.9774 9.13498 16.9774C6.69423 16.9774 6.40519 16.9667 5.44531 16.9239C4.55322 16.8846 4.07149 16.7347 3.75034 16.6098C3.3257 16.4457 3.01883 16.2459 2.70124 15.9283C2.38009 15.6071 2.18383 15.3038 2.01969 14.8792C1.8948 14.558 1.74492 14.0727 1.70567 13.1842C1.66285 12.2208 1.65215 11.9317 1.65215 9.49454C1.65215 7.05379 1.66285 6.76475 1.70567 5.80487C1.74492 4.91278 1.8948 4.43105 2.01969 4.1099C2.18383 3.68527 2.38366 3.37839 2.70124 3.0608C3.02239 2.73965 3.3257 2.54339 3.75034 2.37925C4.07149 2.25436 4.55679 2.10449 5.44531 2.06523C6.40519 2.02241 6.69423 2.01171 9.13498 2.01171ZM9.13498 0.366699C6.65498 0.366699 6.34453 0.377404 5.37037 0.420224C4.39978 0.463045 3.7325 0.620052 3.15442 0.844858C2.55137 1.08037 2.0411 1.39082 1.53439 1.90109C1.02412 2.4078 0.71367 2.91807 0.478159 3.51755C0.253353 4.0992 0.0963455 4.76291 0.0535253 5.7335C0.0107051 6.71123 0 7.02168 0 9.50168C0 11.9817 0.0107051 12.2921 0.0535253 13.2663C0.0963455 14.2369 0.253353 14.9042 0.478159 15.4822C0.71367 16.0853 1.02412 16.5956 1.53439 17.1023C2.0411 17.609 2.55137 17.923 3.15086 18.1549C3.7325 18.3797 4.39621 18.5367 5.3668 18.5796C6.34096 18.6224 6.65141 18.6331 9.13141 18.6331C11.6114 18.6331 11.9219 18.6224 12.896 18.5796C13.8666 18.5367 14.5339 18.3797 15.112 18.1549C15.7115 17.923 16.2217 17.609 16.7284 17.1023C17.2351 16.5956 17.5492 16.0853 17.7811 15.4858C18.0059 14.9042 18.1629 14.2405 18.2057 13.2699C18.2486 12.2957 18.2593 11.9853 18.2593 9.50525C18.2593 7.02524 18.2486 6.7148 18.2057 5.74064C18.1629 4.77005 18.0059 4.10276 17.7811 3.52469C17.5563 2.91807 17.2458 2.4078 16.7356 1.90109C16.2289 1.39438 15.7186 1.08037 15.1191 0.848427C14.5375 0.623621 13.8738 0.466613 12.9032 0.423793C11.9254 0.377404 11.615 0.366699 9.13498 0.366699Z" fill="white"/>
<path d="M9.13507 4.80957C6.54445 4.80957 4.44269 6.91133 4.44269 9.50195C4.44269 12.0926 6.54445 14.1943 9.13507 14.1943C11.7257 14.1943 13.8275 12.0926 13.8275 9.50195C13.8275 6.91133 11.7257 4.80957 9.13507 4.80957ZM9.13507 12.5458C7.45438 12.5458 6.09127 11.1826 6.09127 9.50195C6.09127 7.82126 7.45438 6.45815 9.13507 6.45815C10.8158 6.45815 12.1789 7.82126 12.1789 9.50195C12.1789 11.1826 10.8158 12.5458 9.13507 12.5458Z" fill="white"/>
<path d="M15.1085 4.62381C15.1085 5.23043 14.6161 5.71929 14.013 5.71929C13.4064 5.71929 12.9175 5.22686 12.9175 4.62381C12.9175 4.01719 13.41 3.52832 14.013 3.52832C14.6161 3.52832 15.1085 4.02075 15.1085 4.62381Z" fill="white"/>
</svg>
