<svg width="19" height="19" viewBox="0 0 19 19" fill="none" xmlns="http://www.w3.org/2000/svg">
<path d="M0 18.6299L1.2896 13.941C0.493824 12.5686 0.0756789 11.0127 0.0764434 9.41731C0.0787367 4.42949 4.15699 0.370605 9.16785 0.370605C11.5995 0.371366 13.8821 1.314 15.599 3.02428C17.3152 4.73457 18.26 7.00785 18.2593 9.42568C18.257 14.4143 14.1787 18.4731 9.16785 18.4731C7.64663 18.4724 6.14757 18.0927 4.81975 17.3715L0 18.6299ZM5.04297 15.7335C6.32416 16.4905 7.54725 16.9439 9.16479 16.9447C13.3294 16.9447 16.722 13.5713 16.7243 9.42416C16.7258 5.26865 13.3493 1.89982 9.17091 1.8983C5.00322 1.8983 1.61295 5.2717 1.61143 9.41807C1.61066 11.1109 2.10907 12.3784 2.94613 13.7044L2.18246 16.4798L5.04297 15.7335ZM13.7476 11.5765C13.691 11.4821 13.5396 11.4258 13.3118 11.3125C13.0848 11.1991 11.968 10.6521 11.7593 10.5768C11.5514 10.5015 11.4 10.4634 11.2479 10.6901C11.0965 10.9161 10.6608 11.4258 10.5285 11.5765C10.3963 11.7271 10.2633 11.7461 10.0362 11.6328C9.80921 11.5194 9.07688 11.2813 8.20925 10.5106C7.53426 9.91107 7.07789 9.17081 6.94564 8.94409C6.8134 8.71813 6.93188 8.59564 7.04502 8.48304C7.14745 8.38186 7.27206 8.21904 7.38596 8.08666C7.50139 7.95581 7.53884 7.86147 7.61529 7.71007C7.69097 7.55943 7.65351 7.42705 7.59618 7.31369C7.53884 7.20109 7.08477 6.08804 6.89595 5.63536C6.71096 5.19485 6.52368 5.2542 6.38455 5.24735L5.94882 5.23974C5.79746 5.23974 5.55132 5.29604 5.34339 5.52276C5.13546 5.74948 4.54838 6.29574 4.54838 7.40879C4.54838 8.52184 5.3625 9.59686 5.47564 9.7475C5.58954 9.89814 7.07713 12.1821 9.3559 13.1612C9.89788 13.394 10.3214 13.5332 10.6509 13.6375C11.1951 13.8094 11.6905 13.7851 12.0819 13.7273C12.5184 13.6626 13.4257 13.1802 13.6153 12.6522C13.8049 12.1235 13.8049 11.6708 13.7476 11.5765Z" fill="white"/>
</svg>
